<svg width="360" height="649" viewBox="0 0 360 649" fill="none" xmlns="http://www.w3.org/2000/svg">
<path d="M260.639 1147.95C281.235 1157.23 340.052 1212.36 359.501 1192.51C378.95 1172.66 330.577 1070.35 353.992 1052.66C377.407 1034.97 448.594 1125.47 471.891 1107.59C495.189 1089.71 444.4 987.692 465.819 966.851C487.238 946.01 555.279 1031.54 574.702 1007.55C594.125 983.561 529.061 859.007 559.05 851.693C589.039 844.378 691.36 984.018 718.649 972.442C745.938 960.865 666.152 813.075 690.036 796.125C713.92 779.175 808.94 907.29 833.293 891.081C857.647 874.872 786.924 741.387 806.935 718.322C826.945 695.258 898.623 782.434 929.342 780.37C960.061 778.306 949.167 723.405 954.384 708.414" stroke="white" stroke-opacity="0.2" stroke-width="4" stroke-linecap="round"/>
<path d="M236.408 1109.71C257.004 1118.99 315.822 1174.12 335.27 1154.26C354.719 1134.41 306.346 1032.11 329.761 1014.41C353.176 996.723 424.363 1087.22 447.661 1069.35C470.958 1051.47 420.169 949.448 441.588 928.606C463.007 907.765 531.048 993.299 550.471 969.308C569.894 945.317 504.83 820.763 534.819 813.448C564.808 806.133 667.129 945.774 694.418 934.197C721.707 922.621 641.921 774.831 665.805 757.881C689.689 740.931 784.709 869.045 809.063 852.837C833.416 836.628 762.694 703.143 782.704 680.078C802.714 657.013 874.392 744.19 905.111 742.125C935.83 740.061 924.936 685.16 930.154 670.169" stroke="white" stroke-opacity="0.2" stroke-width="4" stroke-linecap="round"/>
<path d="M212.177 1071.46C232.773 1080.74 291.591 1135.87 311.039 1116.02C330.488 1096.17 282.115 993.86 305.53 976.169C328.945 958.478 400.132 1048.98 423.43 1031.1C446.727 1013.22 395.938 911.203 417.357 890.361C438.776 869.52 506.817 955.054 526.24 931.063C545.663 907.071 480.599 782.518 510.588 775.203C540.577 767.888 642.898 907.529 670.187 895.952C697.476 884.375 617.69 736.586 641.574 719.636C665.458 702.685 760.478 830.8 784.832 814.591C809.185 798.383 738.463 664.898 758.473 641.833C778.483 618.768 850.161 705.944 880.88 703.88C911.599 701.816 900.705 646.915 905.923 631.924" stroke="white" stroke-opacity="0.2" stroke-width="4" stroke-linecap="round"/>
<path d="M187.946 1033.22C208.542 1042.5 267.36 1097.63 286.808 1077.77C306.257 1057.92 257.884 955.615 281.299 937.924C304.714 920.233 375.901 1010.73 399.199 992.856C422.496 974.98 371.707 872.958 393.126 852.116C414.545 831.275 482.586 916.809 502.009 892.818C521.432 868.827 456.368 744.273 486.357 736.958C516.346 729.643 618.667 869.284 645.956 857.707C673.245 846.131 593.459 698.341 617.343 681.391C641.228 664.441 736.247 792.555 760.601 776.347C784.955 760.138 714.232 626.653 734.242 603.588C754.252 580.523 825.931 667.7 856.649 665.635C887.368 663.571 876.475 608.67 881.692 593.679" stroke="white" stroke-opacity="0.2" stroke-width="4" stroke-linecap="round"/>
<path d="M163.715 994.972C184.311 1004.25 243.129 1059.38 262.577 1039.53C282.026 1019.68 233.654 917.37 257.068 899.679C280.483 881.988 351.67 972.488 374.968 954.611C398.265 936.734 347.476 834.713 368.895 813.871C390.314 793.03 458.355 878.564 477.778 854.573C497.202 830.581 432.137 706.028 462.126 698.713C492.115 691.398 594.437 831.039 621.725 819.462C649.014 807.885 569.228 660.096 593.112 643.146C616.997 626.195 712.016 754.31 736.37 738.101C760.724 721.893 690.001 588.408 710.011 565.343C730.021 542.278 801.7 629.454 832.418 627.39C863.137 625.326 852.244 570.425 857.461 555.434" stroke="white" stroke-opacity="0.2" stroke-width="4" stroke-linecap="round"/>
<path d="M139.484 956.727C160.081 966.01 218.898 1021.14 238.346 1001.28C257.795 981.432 209.423 879.125 232.837 861.434C256.252 843.743 327.44 934.243 350.737 916.366C374.034 898.49 323.245 796.468 344.664 775.626C366.083 754.785 434.124 840.319 453.548 816.328C472.971 792.337 407.906 667.783 437.895 660.468C467.884 653.153 570.206 792.794 597.494 781.217C624.783 769.641 544.997 621.851 568.881 604.901C592.766 587.951 687.785 716.066 712.139 699.857C736.493 683.648 665.77 550.163 685.78 527.098C705.79 504.033 777.469 591.21 808.187 589.145C838.906 587.081 828.013 532.18 833.23 517.189" stroke="white" stroke-opacity="0.2" stroke-width="4" stroke-linecap="round"/>
<path d="M115.253 918.482C135.85 927.764 194.667 982.892 214.115 963.039C233.564 943.187 185.192 840.88 208.606 823.189C232.021 805.498 303.209 895.998 326.506 878.121C349.803 860.245 299.014 758.223 320.433 737.381C341.852 716.54 409.893 802.074 429.317 778.083C448.74 754.091 383.675 629.538 413.664 622.223C443.653 614.908 545.975 754.549 573.264 742.972C600.552 731.395 520.766 583.606 544.651 566.656C568.535 549.705 663.554 677.82 687.908 661.611C712.262 645.403 641.539 511.918 661.549 488.853C681.559 465.788 753.238 552.964 783.957 550.9C814.675 548.836 803.782 493.935 808.999 478.944" stroke="white" stroke-opacity="0.2" stroke-width="4" stroke-linecap="round"/>
<path d="M91.0225 880.237C111.619 889.52 170.436 944.647 189.885 924.795C209.333 904.942 160.961 802.636 184.376 784.944C207.79 767.253 278.978 857.753 302.275 839.876C325.572 822 274.784 719.978 296.202 699.137C317.621 678.295 385.663 763.829 405.086 739.838C424.509 715.847 359.445 591.293 389.433 583.978C419.422 576.664 521.744 716.304 549.033 704.727C576.321 693.151 496.535 545.361 520.42 528.411C544.304 511.461 639.323 639.576 663.677 623.367C688.031 607.158 617.308 473.673 637.318 450.608C657.328 427.543 729.007 514.72 759.726 512.656C790.444 510.591 779.551 455.69 784.768 440.7" stroke="white" stroke-opacity="0.2" stroke-width="4" stroke-linecap="round"/>
<path d="M66.7916 841.992C87.3879 851.275 146.205 906.402 165.654 886.55C185.102 866.697 136.73 764.391 160.145 746.699C183.559 729.008 254.747 819.508 278.044 801.631C301.341 783.755 250.553 681.733 271.972 660.892C293.39 640.05 361.432 725.584 380.855 701.593C400.278 677.602 335.214 553.048 365.203 545.733C395.192 538.418 497.513 678.059 524.802 666.482C552.091 654.906 472.305 507.116 496.189 490.166C520.073 473.216 615.092 601.331 639.446 585.122C663.8 568.913 593.077 435.428 613.087 412.363C633.097 389.298 704.776 476.475 735.495 474.41C766.214 472.346 755.32 417.445 760.537 402.454" stroke="white" stroke-opacity="0.2" stroke-width="4" stroke-linecap="round"/>
<path d="M42.5607 803.747C63.1569 813.03 121.974 868.157 141.423 848.305C160.871 828.452 112.499 726.146 135.914 708.454C159.328 690.763 230.516 781.263 253.813 763.386C277.11 745.51 226.322 643.488 247.741 622.647C269.159 601.805 337.201 687.34 356.624 663.348C376.047 639.357 310.983 514.803 340.972 507.488C370.961 500.174 473.282 639.814 500.571 628.237C527.86 616.661 448.074 468.871 471.958 451.921C495.842 434.971 590.861 563.086 615.215 546.877C639.569 530.668 568.846 397.183 588.856 374.118C608.866 351.053 680.545 438.23 711.264 436.166C741.983 434.101 731.089 379.2 736.306 364.21" stroke="white" stroke-opacity="0.2" stroke-width="4" stroke-linecap="round"/>
<path d="M18.3298 765.502C38.926 774.785 97.7434 829.912 117.192 810.06C136.64 790.207 88.2681 687.901 111.683 670.209C135.097 652.518 206.285 743.018 229.582 725.141C252.88 707.265 202.091 605.243 223.51 584.402C244.929 563.56 312.97 649.095 332.393 625.103C351.816 601.112 286.752 476.558 316.741 469.243C346.73 461.929 449.051 601.569 476.34 589.992C503.629 578.416 423.843 430.626 447.727 413.676C471.611 396.726 566.631 524.841 590.984 508.632C615.338 492.423 544.615 358.938 564.625 335.873C584.636 312.808 656.314 399.985 687.033 397.921C717.752 395.856 706.858 340.955 712.075 325.965" stroke="white" stroke-opacity="0.2" stroke-width="4" stroke-linecap="round"/>
<path d="M-5.90119 727.257C14.6951 736.54 73.5124 791.667 92.9609 771.815C112.409 751.962 64.0372 649.656 87.4518 631.964C110.867 614.273 182.054 704.773 205.351 686.896C228.649 669.02 177.86 566.998 199.279 546.157C220.698 525.315 288.739 610.85 308.162 586.858C327.585 562.867 262.521 438.313 292.51 430.998C322.499 423.684 424.82 563.324 452.109 551.747C479.398 540.171 399.612 392.381 423.496 375.431C447.38 358.481 542.4 486.596 566.753 470.387C591.107 454.178 520.384 320.693 540.394 297.628C560.405 274.563 632.083 361.74 662.802 359.676C693.521 357.611 682.627 302.71 687.844 287.72" stroke="white" stroke-opacity="0.2" stroke-width="4" stroke-linecap="round"/>
<path d="M-30.132 689.012C-9.53575 698.295 49.2816 753.422 68.7301 733.57C88.1787 713.717 39.8063 611.411 63.221 593.72C86.6357 576.028 157.823 666.528 181.12 648.652C204.418 630.775 153.629 528.753 175.048 507.912C196.467 487.071 264.508 572.605 283.931 548.613C303.354 524.622 238.29 400.068 268.279 392.753C298.268 385.439 400.589 525.079 427.878 513.503C455.167 501.926 375.381 354.136 399.265 337.186C423.149 320.236 518.169 448.351 542.523 432.142C566.876 415.933 496.153 282.448 516.164 259.383C536.174 236.318 607.852 323.495 638.571 321.431C669.29 319.366 658.396 264.466 663.614 249.475" stroke="white" stroke-opacity="0.2" stroke-width="4" stroke-linecap="round"/>
<path d="M-54.363 650.767C-33.7667 660.05 25.0506 715.177 44.4992 695.325C63.9477 675.472 15.5754 573.166 38.9901 555.475C62.4047 537.783 133.592 628.283 156.89 610.407C180.187 592.53 129.398 490.508 150.817 469.667C172.236 448.826 240.277 534.36 259.7 510.368C279.123 486.377 214.059 361.823 244.048 354.509C274.037 347.194 376.358 486.834 403.647 475.258C430.936 463.681 351.15 315.891 375.034 298.941C398.918 281.991 493.938 410.106 518.292 393.897C542.645 377.688 471.923 244.203 491.933 221.138C511.943 198.073 583.621 285.25 614.34 283.186C645.059 281.121 634.165 226.221 639.383 211.23" stroke="white" stroke-opacity="0.2" stroke-width="4" stroke-linecap="round"/>
<path d="M-78.5939 612.522C-57.9977 621.805 0.819649 676.932 20.2682 657.08C39.7167 637.227 -8.65557 534.921 14.7591 517.23C38.1738 499.538 109.361 590.038 132.659 572.162C155.956 554.285 105.167 452.263 126.586 431.422C148.005 410.581 216.046 496.115 235.469 472.123C254.892 448.132 189.828 323.578 219.817 316.264C249.806 308.949 352.127 448.589 379.416 437.013C406.705 425.436 326.919 277.646 350.803 260.696C374.687 243.746 469.707 371.861 494.061 355.652C518.414 339.443 447.692 205.958 467.702 182.893C487.712 159.828 559.39 247.005 590.109 244.941C620.828 242.876 609.934 187.976 615.152 172.985" stroke="white" stroke-opacity="0.2" stroke-width="4" stroke-linecap="round"/>
<path d="M-102.825 574.277C-82.2285 583.56 -23.4112 638.688 -3.96264 618.835C15.4859 598.982 -32.8864 496.676 -9.47174 478.985C13.9429 461.293 85.1305 551.793 108.428 533.917C131.725 516.04 80.9362 414.018 102.355 393.177C123.774 372.336 191.815 457.87 211.238 433.878C230.662 409.887 165.597 285.333 195.586 278.019C225.575 270.704 327.897 410.344 355.185 398.768C382.474 387.191 302.688 239.401 326.572 222.451C350.457 205.501 445.476 333.616 469.83 317.407C494.184 301.198 423.461 167.713 443.471 144.648C463.481 121.583 535.16 208.76 565.878 206.696C596.597 204.632 585.704 149.731 590.921 134.74" stroke="white" stroke-opacity="0.2" stroke-width="4" stroke-linecap="round"/>
<path d="M-127.056 536.032C-106.459 545.315 -47.6421 600.443 -28.1936 580.59C-8.74504 560.737 -57.1174 458.431 -33.7027 440.74C-10.288 423.048 60.8995 513.548 84.1968 495.672C107.494 477.795 56.7053 375.773 78.1242 354.932C99.5431 334.091 167.584 419.625 187.008 395.633C206.431 371.642 141.366 247.088 171.355 239.774C201.344 232.459 303.666 372.099 330.954 360.523C358.243 348.946 278.457 201.156 302.341 184.206C326.226 167.256 421.245 295.371 445.599 279.162C469.953 262.953 399.23 129.468 419.24 106.403C439.25 83.3385 510.929 170.515 541.647 168.451C572.366 166.387 561.473 111.486 566.69 96.4948" stroke="white" stroke-opacity="0.2" stroke-width="4" stroke-linecap="round"/>
<path d="M-151.287 497.787C-130.69 507.07 -71.873 562.198 -52.4245 542.345C-32.9759 522.492 -81.3483 420.186 -57.9336 402.495C-34.5189 384.803 36.6686 475.303 59.9659 457.427C83.2632 439.55 32.4744 337.528 53.8933 316.687C75.3122 295.846 143.353 381.38 162.777 357.388C182.2 333.397 117.135 208.843 147.124 201.529C177.113 194.214 279.435 333.854 306.724 322.278C334.012 310.701 254.226 162.911 278.111 145.961C301.995 129.011 397.014 257.126 421.368 240.917C445.722 224.708 374.999 91.2232 395.009 68.1584C415.019 45.0935 486.698 132.27 517.417 130.206C548.135 128.142 537.242 73.2407 542.459 58.2498" stroke="white" stroke-opacity="0.2" stroke-width="4" stroke-linecap="round"/>
<path d="M-175.518 459.542C-154.921 468.825 -96.1039 523.953 -76.6554 504.1C-57.2068 484.247 -105.579 381.941 -82.1645 364.25C-58.7498 346.558 12.4377 437.058 35.735 419.182C59.0323 401.305 8.24349 299.283 29.6624 278.442C51.0813 257.601 119.123 343.135 138.546 319.144C157.969 295.152 92.9045 170.599 122.893 163.284C152.882 155.969 255.204 295.609 282.493 284.033C309.781 272.456 229.995 124.666 253.88 107.716C277.764 90.7663 372.783 218.881 397.137 202.672C421.491 186.463 350.768 52.9783 370.778 29.9135C390.788 6.84862 462.467 94.0252 493.186 91.9609C523.904 89.8967 513.011 34.9958 518.228 20.005" stroke="white" stroke-opacity="0.2" stroke-width="4" stroke-linecap="round"/>
<path d="M-199.748 421.297C-179.152 430.58 -120.335 485.708 -100.886 465.855C-81.4377 446.002 -129.81 343.696 -106.395 326.005C-82.9807 308.313 -11.7932 398.813 11.5041 380.937C34.8014 363.06 -15.9874 261.038 5.43149 240.197C26.8504 219.356 94.8917 304.89 114.315 280.899C133.738 256.907 68.6736 132.354 98.6626 125.039C128.651 117.724 230.973 257.364 258.262 245.788C285.551 234.211 205.764 86.4215 229.649 69.4714C253.533 52.5213 348.552 180.636 372.906 164.427C397.26 148.218 326.537 14.7333 346.547 -8.33151C366.557 -31.3964 438.236 55.7802 468.955 53.716C499.673 51.6517 488.78 -3.24921 493.997 -18.24" stroke="white" stroke-opacity="0.2" stroke-width="4" stroke-linecap="round"/>
<path d="M-223.979 383.052C-203.383 392.335 -144.566 447.463 -125.117 427.61C-105.669 407.757 -154.041 305.451 -130.626 287.76C-107.212 270.068 -36.0241 360.568 -12.7269 342.692C10.5704 324.815 -40.2184 222.793 -18.7995 201.952C2.61943 181.111 70.6607 266.645 90.0839 242.654C109.507 218.662 44.4427 94.1085 74.4316 86.7938C104.421 79.479 206.742 219.119 234.031 207.543C261.32 195.966 181.534 48.1765 205.418 31.2264C229.302 14.2763 324.321 142.391 348.675 126.182C373.029 109.973 302.306 -23.5116 322.316 -46.5765C342.326 -69.6414 414.005 17.5352 444.724 15.471C475.443 13.4067 464.549 -41.4942 469.766 -56.485" stroke="white" stroke-opacity="0.2" stroke-width="4" stroke-linecap="round"/>
<path d="M-248.21 344.807C-227.614 354.09 -168.797 409.218 -149.348 389.365C-129.9 369.512 -178.272 267.206 -154.857 249.515C-131.443 231.823 -60.255 322.323 -36.9577 304.447C-13.6605 286.57 -64.4493 184.548 -43.0304 163.707C-21.6115 142.866 46.4298 228.4 65.853 204.409C85.2761 180.417 20.2118 55.8635 50.2007 48.5488C80.1896 41.234 182.511 180.874 209.8 169.298C237.089 157.721 157.303 9.93149 181.187 -7.01862C205.071 -23.9687 300.09 104.146 324.444 87.9373C348.798 71.7283 278.075 -61.7566 298.085 -84.8215C318.096 -107.886 389.774 -20.7097 420.493 -22.774C451.212 -24.8383 440.318 -79.7392 445.535 -94.73" stroke="white" stroke-opacity="0.2" stroke-width="4" stroke-linecap="round"/>
<path d="M-272.441 306.563C-251.845 315.845 -193.028 370.973 -173.579 351.12C-154.13 331.268 -202.503 228.961 -179.088 211.27C-155.673 193.579 -84.4859 284.079 -61.1886 266.202C-37.8914 248.325 -88.6802 146.304 -67.2613 125.462C-45.8424 104.621 22.1989 190.155 41.6221 166.164C61.0452 142.172 -4.01913 17.6187 25.9698 10.3039C55.9587 2.98916 158.28 142.629 185.569 131.053C212.858 119.476 133.072 -28.3134 156.956 -45.2635C180.84 -62.2136 275.86 65.9013 300.213 49.6924C324.567 33.4835 253.844 -100.002 273.854 -123.066C293.865 -146.131 365.543 -58.9546 396.262 -61.0189C426.981 -63.0832 416.087 -117.984 421.304 -132.975" stroke="white" stroke-opacity="0.2" stroke-width="4" stroke-linecap="round"/>
<path d="M-296.672 268.318C-276.076 277.6 -217.259 332.728 -197.81 312.875C-178.361 293.023 -226.734 190.716 -203.319 173.025C-179.904 155.334 -108.717 245.834 -85.4196 227.957C-62.1223 210.08 -112.911 108.059 -91.4922 87.2173C-70.0733 66.376 -2.03198 151.91 17.3912 127.919C36.8143 103.927 -28.2501 -20.6263 1.73888 -27.9411C31.7278 -35.2558 134.049 104.384 161.338 92.8079C188.627 81.2314 108.841 -66.5584 132.725 -83.5085C156.609 -100.459 251.629 27.6563 275.982 11.4474C300.336 -4.76154 229.613 -138.247 249.624 -161.311C269.634 -184.376 341.312 -97.1996 372.031 -99.2639C402.75 -101.328 391.856 -156.229 397.073 -171.22" stroke="white" stroke-opacity="0.2" stroke-width="4" stroke-linecap="round"/>
<path d="M-320.903 230.073C-300.307 239.355 -241.489 294.483 -222.041 274.63C-202.592 254.778 -250.965 152.471 -227.55 134.78C-204.135 117.089 -132.948 207.589 -109.65 189.712C-86.3532 171.835 -137.142 69.8136 -115.723 48.9723C-94.3042 28.131 -26.2629 113.665 -6.83977 89.6737C12.5834 65.6824 -52.481 -58.8713 -22.492 -66.1861C7.4969 -73.5008 109.818 66.1395 137.107 54.5629C164.396 42.9864 84.6099 -104.803 108.494 -121.753C132.378 -138.704 227.398 -10.5887 251.752 -26.7976C276.105 -43.0065 205.383 -176.492 225.393 -199.556C245.403 -222.621 317.081 -135.445 347.8 -137.509C378.519 -139.573 367.625 -194.474 372.843 -209.465" stroke="white" stroke-opacity="0.2" stroke-width="4" stroke-linecap="round"/>
<path d="M-345.134 191.828C-324.538 201.111 -265.72 256.238 -246.272 236.385C-226.823 216.533 -275.196 114.226 -251.781 96.5351C-228.366 78.8438 -157.179 169.344 -133.881 151.467C-110.584 133.591 -161.373 31.5688 -139.954 10.7274C-118.535 -10.1139 -50.4938 75.4202 -31.0706 51.4289C-11.6475 27.4375 -76.7119 -97.1162 -46.7229 -104.431C-16.734 -111.746 85.5875 27.8946 112.876 16.3181C140.165 4.74151 60.379 -143.048 84.2633 -159.998C108.148 -176.948 203.167 -48.8335 227.521 -65.0425C251.875 -81.2514 181.152 -214.736 201.162 -237.801C221.172 -260.866 292.851 -173.689 323.569 -175.754C354.288 -177.818 343.395 -232.719 348.612 -247.71" stroke="white" stroke-opacity="0.2" stroke-width="4" stroke-linecap="round"/>
<path d="M-369.365 153.583C-348.769 162.866 -289.951 217.993 -270.503 198.14C-251.054 178.288 -299.426 75.9813 -276.012 58.2901C-252.597 40.5988 -181.41 131.099 -158.112 113.222C-134.815 95.3456 -185.604 -6.67624 -164.185 -27.5176C-142.766 -48.3589 -74.7247 37.1752 -55.3016 13.1839C-35.8784 -10.8075 -100.943 -135.361 -70.9538 -142.676C-40.9649 -149.991 61.3565 -10.3504 88.6453 -21.9269C115.934 -33.5035 36.1481 -181.293 60.0323 -198.243C83.9166 -215.193 178.936 -87.0785 203.29 -103.287C227.644 -119.496 156.921 -252.981 176.931 -276.046C196.941 -299.111 268.62 -211.934 299.338 -213.999C330.057 -216.063 319.164 -270.964 324.381 -285.955" stroke="white" stroke-opacity="0.2" stroke-width="4" stroke-linecap="round"/>
<path d="M-393.596 115.338C-372.999 124.621 -314.182 179.748 -294.734 159.895C-275.285 140.043 -323.657 37.7365 -300.243 20.0452C-276.828 2.35389 -205.64 92.8539 -182.343 74.9773C-159.046 57.1007 -209.835 -44.9211 -188.416 -65.7624C-166.997 -86.6037 -98.9556 -1.06968 -79.5325 -25.061C-60.1093 -49.0523 -125.174 -173.606 -95.1848 -180.921C-65.1958 -188.236 37.1256 -48.5953 64.4144 -60.1718C91.7032 -71.7484 11.9172 -219.538 35.8014 -236.488C59.6857 -253.438 154.705 -125.323 179.059 -141.532C203.413 -157.741 132.69 -291.226 152.7 -314.291C172.71 -337.356 244.389 -250.179 275.107 -252.244C305.826 -254.308 294.933 -309.209 300.15 -324.2" stroke="white" stroke-opacity="0.2" stroke-width="4" stroke-linecap="round"/>
<path d="M-417.827 77.0929C-397.23 86.3758 -338.413 141.503 -318.964 121.651C-299.516 101.798 -347.888 -0.508398 -324.474 -18.1997C-301.059 -35.891 -229.871 54.609 -206.574 36.7324C-183.277 18.8558 -234.066 -83.166 -212.647 -104.007C-191.228 -124.849 -123.186 -39.3145 -103.763 -63.3059C-84.3402 -87.2972 -149.405 -211.851 -119.416 -219.166C-89.4267 -226.48 12.8948 -86.8401 40.1835 -98.4167C67.4723 -109.993 -12.3137 -257.783 11.5706 -274.733C35.4548 -291.683 130.474 -163.568 154.828 -179.777C179.182 -195.986 108.459 -329.471 128.469 -352.536C148.479 -375.601 220.158 -288.424 250.877 -290.489C281.595 -292.553 270.702 -347.454 275.919 -362.445" stroke="white" stroke-opacity="0.2" stroke-width="4" stroke-linecap="round"/>
<path d="M-442.058 38.8479C-421.461 48.1308 -362.644 103.258 -343.195 83.4056C-323.747 63.553 -372.119 -38.7534 -348.705 -56.4447C-325.29 -74.136 -254.102 16.364 -230.805 -1.51258C-207.508 -19.3892 -258.297 -121.411 -236.878 -142.252C-215.459 -163.094 -147.417 -77.5595 -127.994 -101.551C-108.571 -125.542 -173.636 -250.096 -143.647 -257.411C-113.658 -264.725 -11.3362 -125.085 15.9526 -136.662C43.2414 -148.238 -36.5447 -296.028 -12.6604 -312.978C11.2238 -329.928 106.243 -201.813 130.597 -218.022C154.951 -234.231 84.228 -367.716 104.238 -390.781C124.248 -413.846 195.927 -326.669 226.646 -328.733C257.364 -330.798 246.471 -385.699 251.688 -400.69" stroke="white" stroke-opacity="0.2" stroke-width="4" stroke-linecap="round"/>
<path d="M-466.288 0.602927C-445.692 9.88578 -386.875 65.0132 -367.426 45.1606C-347.978 25.308 -396.35 -76.9984 -372.935 -94.6897C-349.521 -112.381 -278.333 -21.881 -255.036 -39.7576C-231.739 -57.6342 -282.527 -159.656 -261.109 -180.497C-239.69 -201.339 -171.648 -115.805 -152.225 -139.796C-132.802 -163.787 -197.866 -288.341 -167.878 -295.656C-137.889 -302.97 -35.5671 -163.33 -8.27833 -174.907C19.0105 -186.483 -60.7756 -334.273 -36.8913 -351.223C-13.0071 -368.173 82.0123 -240.058 106.366 -256.267C130.72 -272.476 59.997 -405.961 80.0072 -429.026C100.017 -452.091 171.696 -364.914 202.415 -366.978C233.133 -369.043 222.24 -423.944 227.457 -438.934" stroke="white" stroke-opacity="0.2" stroke-width="4" stroke-linecap="round"/>
<path d="M-490.519 -37.6419C-469.923 -28.3591 -411.106 26.7684 -391.657 6.91575C-372.209 -12.9369 -420.581 -115.243 -397.166 -132.935C-373.752 -150.626 -302.564 -60.1259 -279.267 -78.0024C-255.97 -95.879 -306.758 -197.901 -285.339 -218.742C-263.921 -239.583 -195.879 -154.049 -176.456 -178.041C-157.033 -202.032 -222.097 -326.586 -192.108 -333.901C-162.119 -341.215 -59.798 -201.575 -32.5092 -213.152C-5.22041 -224.728 -85.0065 -372.518 -61.1222 -389.468C-37.2379 -406.418 57.7814 -278.303 82.1352 -294.512C106.489 -310.721 35.7662 -444.206 55.7763 -467.271C75.7864 -490.336 147.465 -403.159 178.184 -405.223C208.903 -407.288 198.009 -462.189 203.226 -477.179" stroke="white" stroke-opacity="0.2" stroke-width="4" stroke-linecap="round"/>
<path d="M-514.75 -75.8869C-494.154 -66.6041 -435.337 -11.4766 -415.888 -31.3292C-396.44 -51.1819 -444.812 -153.488 -421.397 -171.18C-397.983 -188.871 -326.795 -98.3709 -303.498 -116.247C-280.2 -134.124 -330.989 -236.146 -309.57 -256.987C-288.151 -277.828 -220.11 -192.294 -200.687 -216.286C-181.264 -240.277 -246.328 -364.831 -216.339 -372.146C-186.35 -379.46 -84.0289 -239.82 -56.7401 -251.397C-29.4513 -262.973 -109.237 -410.763 -85.3531 -427.713C-61.4689 -444.663 33.5505 -316.548 57.9043 -332.757C82.2582 -348.966 11.5352 -482.451 31.5454 -505.516C51.5555 -528.581 123.234 -441.404 153.953 -443.468C184.672 -445.533 173.778 -500.434 178.995 -515.424" stroke="white" stroke-opacity="0.2" stroke-width="4" stroke-linecap="round"/>
</svg>
